M48
;Layer_Color=9474304
;FILE_FORMAT=4:4
METRIC,LZ
;TYPE=PLATED
T01F00S00C0.7140
T02F00S00C0.7620
T03F00S00C0.8000
T04F00S00C0.8128
T05F00S00C0.8890
T06F00S00C1.0414
T07F00S00C1.2000
;TYPE=NON_PLATED
T08F00S00C0.9000
%
T01
X002706Y002876
X00296Y00313
X003214Y002876
T02
X00393Y00287
X00418
X00496Y00348
Y00373
X00341Y00534
X00321
T03
X00562Y00605
Y00625
T04
X00346Y003716
Y00397
Y004224
Y004478
X004222
Y004224
Y00397
Y003716
T05
X00195Y0045
X003093
T06
X00493999Y0045398
Y00741
T07
X00649Y0011135
Y0028665
T08
X00132Y00258
Y00328
M30
