G04*
G04 #@! TF.GenerationSoftware,Altium Limited,Altium Designer,25.8.1 (18)*
G04*
G04 Layer_Physical_Order=2*
G04 Layer_Color=16711680*
%FSLAX44Y44*%
%MOMM*%
G71*
G04*
G04 #@! TF.SameCoordinates,F3778B4A-788E-40D2-BD0F-7D89B89A4494*
G04*
G04*
G04 #@! TF.FilePolarity,Positive*
G04*
G01*
G75*
%ADD19R,1.5240X1.5240*%
%ADD20C,1.5240*%
%ADD21C,1.2700*%
%ADD22R,1.5494X1.5494*%
%ADD23C,1.5494*%
%ADD30R,1.3970X1.3970*%
%ADD31C,1.3970*%
%ADD32C,0.5000*%
%ADD33R,1.1500X1.1500*%
%ADD34C,0.9000*%
%ADD35R,1.2220X1.2220*%
%ADD36C,1.2220*%
%ADD37C,1.8000*%
%ADD38C,1.1500*%
G36*
X820496Y780377D02*
X819000Y0D01*
X1500D01*
Y782500D01*
X818377D01*
X820496Y780377D01*
D02*
G37*
%LPC*%
G36*
X495414Y751747D02*
X492585D01*
X489851Y751015D01*
X487401Y749600D01*
X485400Y747599D01*
X483985Y745148D01*
X483253Y742415D01*
Y739585D01*
X483985Y736852D01*
X485400Y734401D01*
X487401Y732401D01*
X489851Y730986D01*
X492585Y730253D01*
X495414D01*
X498148Y730986D01*
X500598Y732401D01*
X502599Y734401D01*
X504014Y736852D01*
X504747Y739585D01*
Y742415D01*
X504014Y745148D01*
X502599Y747599D01*
X500598Y749600D01*
X498148Y751015D01*
X495414Y751747D01*
D02*
G37*
G36*
X570750Y633750D02*
X553250D01*
Y616250D01*
X560812D01*
X560909Y613290D01*
X560201Y613100D01*
X558800Y612725D01*
X556910Y611633D01*
X555366Y610090D01*
X554275Y608200D01*
X553758Y606270D01*
X562000D01*
X570242D01*
X569725Y608200D01*
X568634Y610090D01*
X567090Y611633D01*
X565200Y612725D01*
X563799Y613100D01*
X563092Y613290D01*
X563188Y616250D01*
X570750D01*
Y633750D01*
D02*
G37*
G36*
X560730Y603730D02*
X553758D01*
X554275Y601800D01*
X555366Y599910D01*
X556910Y598366D01*
X558800Y597275D01*
X560730Y596758D01*
Y603730D01*
D02*
G37*
G36*
X570242D02*
X563270D01*
Y596758D01*
X565200Y597275D01*
X567090Y598366D01*
X568634Y599910D01*
X569725Y601800D01*
X570242Y603730D01*
D02*
G37*
G36*
X342231Y543350D02*
X339769D01*
X337391Y542713D01*
X335259Y541482D01*
X333518Y539741D01*
X332650Y538238D01*
X331170Y537921D01*
X330830D01*
X329350Y538238D01*
X328482Y539741D01*
X326741Y541482D01*
X324609Y542713D01*
X322231Y543350D01*
X319769D01*
X317391Y542713D01*
X315259Y541482D01*
X313518Y539741D01*
X312287Y537609D01*
X311650Y535231D01*
Y532769D01*
X311690Y532621D01*
X234677Y455608D01*
X204985D01*
Y459985D01*
X185015D01*
Y440015D01*
X204985D01*
Y444392D01*
X237000D01*
X239146Y444819D01*
X240965Y446035D01*
X319620Y524690D01*
X319769Y524650D01*
X322231D01*
X324609Y525288D01*
X326741Y526519D01*
X328482Y528259D01*
X329350Y529763D01*
X330830Y530079D01*
X331170D01*
X332650Y529763D01*
X333518Y528259D01*
X335259Y526519D01*
X337391Y525288D01*
X339769Y524650D01*
X342231D01*
X344609Y525288D01*
X346741Y526519D01*
X348482Y528259D01*
X349713Y530391D01*
X350350Y532769D01*
Y535231D01*
X349713Y537609D01*
X348482Y539741D01*
X346741Y541482D01*
X344609Y542713D01*
X342231Y543350D01*
D02*
G37*
G36*
X504747Y464727D02*
X483253D01*
Y443233D01*
X504747D01*
Y464727D01*
D02*
G37*
G36*
X423598Y458420D02*
X420802D01*
X418101Y457696D01*
X415679Y456298D01*
X413702Y454321D01*
X412304Y451899D01*
X411580Y449198D01*
Y446402D01*
X412304Y443701D01*
X413702Y441279D01*
X415679Y439302D01*
X418101Y437904D01*
X420802Y437180D01*
X423598D01*
X426299Y437904D01*
X428721Y439302D01*
X430698Y441279D01*
X432096Y443701D01*
X432820Y446402D01*
Y449198D01*
X432096Y451899D01*
X430698Y454321D01*
X428721Y456298D01*
X426299Y457696D01*
X423598Y458420D01*
D02*
G37*
G36*
X310615Y459985D02*
X307985D01*
X305446Y459305D01*
X303169Y457990D01*
X301310Y456131D01*
X299995Y453854D01*
X299315Y451315D01*
Y448685D01*
X299995Y446146D01*
X301310Y443869D01*
X303169Y442010D01*
X305446Y440695D01*
X307985Y440015D01*
X310615D01*
X313154Y440695D01*
X315431Y442010D01*
X317290Y443869D01*
X317592Y444392D01*
X324215D01*
X324773Y443835D01*
X326592Y442619D01*
X328738Y442192D01*
X335380D01*
Y437180D01*
X356620D01*
Y458420D01*
X335380D01*
Y453408D01*
X331061D01*
X330503Y453965D01*
X328684Y455181D01*
X326538Y455608D01*
X317592D01*
X317290Y456131D01*
X315431Y457990D01*
X313154Y459305D01*
X310615Y459985D01*
D02*
G37*
G36*
X347338Y432560D02*
X347270D01*
Y423670D01*
X356160D01*
Y423738D01*
X355468Y426322D01*
X354130Y428639D01*
X352238Y430530D01*
X349922Y431868D01*
X347338Y432560D01*
D02*
G37*
G36*
X344730D02*
X344663D01*
X342078Y431868D01*
X339762Y430530D01*
X337870Y428639D01*
X336532Y426322D01*
X335840Y423738D01*
Y423670D01*
X344730D01*
Y432560D01*
D02*
G37*
G36*
Y421130D02*
X335840D01*
Y421063D01*
X336532Y418479D01*
X337870Y416162D01*
X339762Y414270D01*
X342078Y412933D01*
X344663Y412240D01*
X344730D01*
Y421130D01*
D02*
G37*
G36*
X423598Y433020D02*
X420802D01*
X418101Y432296D01*
X415679Y430898D01*
X413702Y428921D01*
X412304Y426499D01*
X411580Y423798D01*
Y421002D01*
X412304Y418301D01*
X413702Y415879D01*
X415679Y413902D01*
X418101Y412504D01*
X420802Y411780D01*
X423598D01*
X426299Y412504D01*
X428721Y413902D01*
X430698Y415879D01*
X432096Y418301D01*
X432820Y421002D01*
Y423798D01*
X432096Y426499D01*
X430698Y428921D01*
X428721Y430898D01*
X426299Y432296D01*
X423598Y433020D01*
D02*
G37*
G36*
X356160Y421130D02*
X347270D01*
Y412240D01*
X347338D01*
X348041Y412429D01*
X350602Y409868D01*
X349049Y407178D01*
X347398Y407620D01*
X344602D01*
X341901Y406897D01*
X339479Y405498D01*
X337502Y403521D01*
X336104Y401099D01*
X335380Y398398D01*
Y395602D01*
X336104Y392901D01*
X337502Y390479D01*
X339479Y388502D01*
X341901Y387104D01*
X344602Y386380D01*
X347398D01*
X349049Y386823D01*
X350602Y384133D01*
X348041Y381572D01*
X347338Y381760D01*
X347270D01*
Y372870D01*
X356160D01*
Y372938D01*
X355972Y373641D01*
X363253Y380923D01*
X364469Y382742D01*
X364896Y384888D01*
Y409112D01*
X364469Y411258D01*
X363253Y413078D01*
X355971Y420359D01*
X356160Y421063D01*
Y421130D01*
D02*
G37*
G36*
X423598Y407620D02*
X420802D01*
X418101Y406897D01*
X415679Y405498D01*
X413702Y403521D01*
X412304Y401099D01*
X411580Y398398D01*
Y395602D01*
X412304Y392901D01*
X413702Y390479D01*
X415679Y388502D01*
X418101Y387104D01*
X420802Y386380D01*
X423598D01*
X424616Y386653D01*
X426802Y384468D01*
X425249Y381778D01*
X423598Y382220D01*
X420802D01*
X418101Y381497D01*
X415679Y380098D01*
X413702Y378121D01*
X412304Y375699D01*
X411580Y372998D01*
Y370202D01*
X412304Y367501D01*
X413702Y365079D01*
X415679Y363102D01*
X418101Y361704D01*
X420802Y360980D01*
X423598D01*
X426299Y361704D01*
X428721Y363102D01*
X430698Y365079D01*
X432096Y367501D01*
X432820Y370202D01*
Y372998D01*
X432378Y374649D01*
X435067Y376202D01*
X442235Y369035D01*
X444054Y367819D01*
X446200Y367392D01*
X488441D01*
X488518Y367259D01*
X490259Y365518D01*
X492391Y364287D01*
X494769Y363650D01*
X497231D01*
X499609Y364287D01*
X501741Y365518D01*
X503482Y367259D01*
X504713Y369391D01*
X505350Y371769D01*
Y374231D01*
X504713Y376609D01*
X503482Y378741D01*
X501741Y380482D01*
X499609Y381713D01*
X497231Y382350D01*
X494769D01*
X492391Y381713D01*
X490259Y380482D01*
X488518Y378741D01*
X488441Y378608D01*
X448523D01*
X432547Y394583D01*
X432820Y395602D01*
Y398398D01*
X432096Y401099D01*
X430698Y403521D01*
X428721Y405498D01*
X426299Y406897D01*
X423598Y407620D01*
D02*
G37*
G36*
X344730Y381760D02*
X344663D01*
X342078Y381068D01*
X339762Y379730D01*
X337870Y377839D01*
X336532Y375522D01*
X335840Y372938D01*
Y372870D01*
X344730D01*
Y381760D01*
D02*
G37*
G36*
Y370330D02*
X335840D01*
Y370263D01*
X336532Y367679D01*
X337870Y365362D01*
X339762Y363470D01*
X342078Y362133D01*
X344663Y361440D01*
X344730D01*
Y370330D01*
D02*
G37*
G36*
X497270Y356863D02*
Y349270D01*
X504863D01*
X504284Y351431D01*
X503114Y353459D01*
X501459Y355114D01*
X499431Y356284D01*
X497270Y356863D01*
D02*
G37*
G36*
X504863Y346730D02*
X497270D01*
Y339137D01*
X499431Y339716D01*
X501459Y340886D01*
X503114Y342541D01*
X504284Y344569D01*
X504863Y346730D01*
D02*
G37*
G36*
X356160Y370330D02*
X347270D01*
Y361440D01*
X347338D01*
X348041Y361629D01*
X365635Y344035D01*
X367454Y342819D01*
X369600Y342392D01*
X489035D01*
X490541Y340886D01*
X492569Y339716D01*
X494730Y339137D01*
Y348000D01*
Y356863D01*
X492569Y356284D01*
X490541Y355114D01*
X489035Y353608D01*
X371923D01*
X355971Y369559D01*
X356160Y370263D01*
Y370330D01*
D02*
G37*
G36*
X132987Y335500D02*
X131013D01*
X129105Y334989D01*
X127395Y334002D01*
X125998Y332605D01*
X125011Y330895D01*
X124500Y328988D01*
Y327013D01*
X125011Y325105D01*
X125998Y323395D01*
X127395Y321999D01*
X129105Y321011D01*
X131013Y320500D01*
X132987D01*
X134895Y321011D01*
X136605Y321999D01*
X138001Y323395D01*
X138989Y325105D01*
X139500Y327013D01*
Y328988D01*
X138989Y330895D01*
X138001Y332605D01*
X136605Y334002D01*
X134895Y334989D01*
X132987Y335500D01*
D02*
G37*
G36*
X297199Y322110D02*
X294800D01*
X292483Y321489D01*
X290406Y320290D01*
X288710Y318594D01*
X287511Y316516D01*
X286890Y314199D01*
Y311801D01*
X287511Y309484D01*
X288710Y307406D01*
X290406Y305710D01*
X292483Y304511D01*
X294800Y303890D01*
X297199D01*
X299516Y304511D01*
X301593Y305710D01*
X303290Y307406D01*
X304489Y309484D01*
X305110Y311801D01*
Y314199D01*
X304489Y316516D01*
X303290Y318594D01*
X301593Y320290D01*
X299516Y321489D01*
X297199Y322110D01*
D02*
G37*
G36*
X650580Y298650D02*
X647420D01*
X644368Y297832D01*
X641632Y296252D01*
X639398Y294018D01*
X638381Y292257D01*
X535056D01*
X533294Y292608D01*
X425559D01*
X425482Y292741D01*
X423741Y294482D01*
X421609Y295713D01*
X419231Y296350D01*
X416769D01*
X414391Y295713D01*
X412259Y294482D01*
X410518Y292741D01*
X409287Y290609D01*
X408650Y288231D01*
Y285769D01*
X409287Y283391D01*
X410518Y281259D01*
X412259Y279518D01*
X414391Y278287D01*
X416769Y277650D01*
X419231D01*
X421609Y278287D01*
X423741Y279518D01*
X425482Y281259D01*
X425559Y281392D01*
X531882D01*
X533644Y281042D01*
X638381D01*
X639398Y279282D01*
X641632Y277048D01*
X644368Y275468D01*
X647420Y274650D01*
X650580D01*
X653632Y275468D01*
X656368Y277048D01*
X658602Y279282D01*
X660182Y282018D01*
X661000Y285070D01*
Y288230D01*
X660182Y291282D01*
X658602Y294018D01*
X656368Y296252D01*
X653632Y297832D01*
X650580Y298650D01*
D02*
G37*
G36*
X322670Y296215D02*
Y288870D01*
X330015D01*
X329460Y290939D01*
X328321Y292911D01*
X326711Y294522D01*
X324739Y295660D01*
X322670Y296215D01*
D02*
G37*
G36*
X320130Y296215D02*
X318061Y295660D01*
X316089Y294522D01*
X314478Y292911D01*
X313339Y290939D01*
X312785Y288870D01*
X320130D01*
Y296215D01*
D02*
G37*
G36*
Y286330D02*
X312785D01*
X313339Y284261D01*
X314478Y282289D01*
X316089Y280678D01*
X318061Y279540D01*
X320130Y278985D01*
Y286330D01*
D02*
G37*
G36*
X330015D02*
X322670D01*
Y278985D01*
X324739Y279540D01*
X326711Y280678D01*
X328321Y282289D01*
X329460Y284261D01*
X330015Y286330D01*
D02*
G37*
G36*
X279710Y296710D02*
X261490D01*
Y278490D01*
X279710D01*
Y296710D01*
D02*
G37*
G36*
X394231Y296350D02*
X391769D01*
X389391Y295713D01*
X387259Y294482D01*
X385518Y292741D01*
X384287Y290609D01*
X383650Y288231D01*
Y285769D01*
X384287Y283391D01*
X385518Y281259D01*
X387259Y279518D01*
X389391Y278287D01*
X391769Y277650D01*
X394231D01*
X396609Y278287D01*
X398741Y279518D01*
X400482Y281259D01*
X401713Y283391D01*
X402350Y285769D01*
Y288231D01*
X401713Y290609D01*
X400482Y292741D01*
X398741Y294482D01*
X396609Y295713D01*
X394231Y296350D01*
D02*
G37*
G36*
X132987Y265500D02*
X131013D01*
X129105Y264989D01*
X127395Y264002D01*
X125998Y262605D01*
X125011Y260895D01*
X124500Y258987D01*
Y257013D01*
X125011Y255105D01*
X125998Y253395D01*
X127395Y251999D01*
X129105Y251011D01*
X131013Y250500D01*
X132987D01*
X134895Y251011D01*
X136605Y251999D01*
X138001Y253395D01*
X138989Y255105D01*
X139500Y257013D01*
Y258987D01*
X138989Y260895D01*
X138001Y262605D01*
X136605Y264002D01*
X134895Y264989D01*
X132987Y265500D01*
D02*
G37*
G36*
X650519Y122890D02*
X650270D01*
Y112620D01*
X660540D01*
Y112869D01*
X659753Y115804D01*
X658234Y118436D01*
X656086Y120584D01*
X653454Y122104D01*
X650519Y122890D01*
D02*
G37*
G36*
X647730D02*
X647481D01*
X644546Y122104D01*
X641914Y120584D01*
X639766Y118436D01*
X638246Y115804D01*
X637460Y112869D01*
Y112620D01*
X647730D01*
Y122890D01*
D02*
G37*
G36*
X660540Y110080D02*
X650270D01*
Y99810D01*
X650519D01*
X653454Y100597D01*
X656086Y102116D01*
X658234Y104264D01*
X659753Y106896D01*
X660540Y109831D01*
Y110080D01*
D02*
G37*
G36*
X647730D02*
X637460D01*
Y109831D01*
X638246Y106896D01*
X639766Y104264D01*
X641914Y102116D01*
X644546Y100597D01*
X647481Y99810D01*
X647730D01*
Y110080D01*
D02*
G37*
%LPD*%
D19*
X346000Y447800D02*
D03*
D20*
Y422400D02*
D03*
Y397000D02*
D03*
Y371600D02*
D03*
X422200D02*
D03*
Y397000D02*
D03*
Y422400D02*
D03*
Y447800D02*
D03*
D21*
X418000Y287000D02*
D03*
X393000D02*
D03*
X321000Y534000D02*
D03*
X341000D02*
D03*
X496000Y373000D02*
D03*
Y348000D02*
D03*
D22*
X493999Y453980D02*
D03*
D23*
Y741000D02*
D03*
D30*
X195000Y450000D02*
D03*
D31*
X309300D02*
D03*
D32*
X346000Y371600D02*
X369600Y348000D01*
X496000D01*
X359288Y384888D02*
Y409112D01*
X346000Y422400D02*
X359288Y409112D01*
X346000Y371600D02*
X359288Y384888D01*
X195000Y450000D02*
X237000D01*
X321000Y534000D01*
X328738Y447800D02*
X346000D01*
X326538Y450000D02*
X328738Y447800D01*
X309300Y450000D02*
X326538D01*
X418000Y287000D02*
X533294D01*
X533644Y286650D01*
X649000D01*
X422200Y397000D02*
X446200Y373000D01*
X496000D01*
D33*
X562000Y625000D02*
D03*
D34*
X132000Y258000D02*
D03*
Y328000D02*
D03*
D35*
X270600Y287600D02*
D03*
D36*
X296000Y313000D02*
D03*
X321400Y287600D02*
D03*
D37*
X649000Y286650D02*
D03*
Y111350D02*
D03*
D38*
X562000Y605000D02*
D03*
M02*
