G04*
G04 #@! TF.GenerationSoftware,Altium Limited,Altium Designer,25.8.1 (18)*
G04*
G04 Layer_Color=65535*
%FSLAX44Y44*%
%MOMM*%
G71*
G04*
G04 #@! TF.SameCoordinates,F3778B4A-788E-40D2-BD0F-7D89B89A4494*
G04*
G04*
G04 #@! TF.FilePolarity,Positive*
G04*
G01*
G75*
%ADD10C,0.1524*%
%ADD11C,0.2000*%
%ADD12C,0.1270*%
%ADD13C,0.2540*%
%ADD14C,0.0762*%
D10*
X440806Y287000D02*
G03*
X440806Y287000I-35306J0D01*
G01*
X359829Y534000D02*
G03*
X359829Y534000I-28829J0D01*
G01*
X531306Y360500D02*
G03*
X531306Y360500I-35306J0D01*
G01*
X349810Y360170D02*
X418390D01*
Y381863D02*
Y386737D01*
X349810Y459230D02*
X418390D01*
X349810Y432663D02*
Y436853D01*
Y407263D02*
Y412137D01*
Y381863D02*
Y386737D01*
X418390Y407263D02*
Y412137D01*
Y432663D02*
Y437537D01*
X362574Y280650D02*
Y293350D01*
X356224Y287000D02*
X368924D01*
X288201Y534000D02*
X300901D01*
X294551Y527650D02*
Y540350D01*
X517621Y483698D02*
Y711282D01*
X470378D02*
X517621D01*
X470378Y483698D02*
Y711282D01*
Y483698D02*
X517621D01*
X489650Y317574D02*
X502350D01*
X496000Y311224D02*
Y323924D01*
X219384Y435649D02*
X284916D01*
Y464351D01*
X219384D02*
X284916D01*
X219384Y435649D02*
Y464351D01*
D11*
X80500Y228000D02*
G03*
X80500Y228000I-1000J0D01*
G01*
X256360Y287600D02*
G03*
X256360Y287600I-1000J0D01*
G01*
X563000Y641500D02*
G03*
X563000Y641500I-1000J0D01*
G01*
D12*
X808500Y199000D02*
G03*
X808500Y199000I-159500J0D01*
G01*
X263000Y252300D02*
X329000D01*
Y252400D02*
Y275250D01*
Y300650D02*
Y322300D01*
X263000D02*
X329000D01*
X263000Y300650D02*
Y322300D01*
Y252400D02*
Y275250D01*
X649000Y371500D02*
Y381500D01*
X644000Y376500D02*
X654000D01*
X649000Y19000D02*
Y29000D01*
X551500Y635000D02*
X572500D01*
X551500Y595000D02*
Y635000D01*
X572500Y595000D02*
Y635000D01*
X551500Y595000D02*
X572500D01*
D13*
X337700Y494305D02*
Y479070D01*
X347857D01*
X352935D02*
Y494305D01*
X358013Y489227D01*
X363092Y494305D01*
Y479070D01*
X368170Y491766D02*
X370709Y494305D01*
X375788D01*
X378327Y491766D01*
Y489227D01*
X375788Y486688D01*
X373248D01*
X375788D01*
X378327Y484148D01*
Y481609D01*
X375788Y479070D01*
X370709D01*
X368170Y481609D01*
X383405Y491766D02*
X385944Y494305D01*
X391023D01*
X393562Y491766D01*
Y489227D01*
X391023Y486688D01*
X393562Y484148D01*
Y481609D01*
X391023Y479070D01*
X385944D01*
X383405Y481609D01*
Y484148D01*
X385944Y486688D01*
X383405Y489227D01*
Y491766D01*
X385944Y486688D02*
X391023D01*
X408797Y494305D02*
X403719Y491766D01*
X398640Y486688D01*
Y481609D01*
X401180Y479070D01*
X406258D01*
X408797Y481609D01*
Y484148D01*
X406258Y486688D01*
X398640D01*
X368177Y343938D02*
X365638Y346477D01*
X360559D01*
X358020Y343938D01*
Y333781D01*
X360559Y331242D01*
X365638D01*
X368177Y333781D01*
X373255Y331242D02*
X378333D01*
X375794D01*
Y346477D01*
X373255Y343938D01*
X300105Y584476D02*
X297565Y587015D01*
X292487D01*
X289948Y584476D01*
Y574319D01*
X292487Y571780D01*
X297565D01*
X300105Y574319D01*
X305183Y584476D02*
X307722Y587015D01*
X312801D01*
X315340Y584476D01*
Y581937D01*
X312801Y579398D01*
X310261D01*
X312801D01*
X315340Y576858D01*
Y574319D01*
X312801Y571780D01*
X307722D01*
X305183Y574319D01*
X470796Y759740D02*
Y774975D01*
X478414D01*
X480953Y772436D01*
Y767357D01*
X478414Y764818D01*
X470796D01*
X475874D02*
X480953Y759740D01*
X486031D02*
X491109D01*
X488570D01*
Y774975D01*
X486031Y772436D01*
X58540Y18618D02*
Y33853D01*
X68697Y18618D01*
Y33853D01*
X78853Y13540D02*
X81393D01*
X83932Y16079D01*
Y28775D01*
X76314D01*
X73775Y26236D01*
Y21158D01*
X76314Y18618D01*
X83932D01*
X89010Y28775D02*
Y21158D01*
X91549Y18618D01*
X99167D01*
Y28775D01*
X104245D02*
Y21158D01*
X106784Y18618D01*
X114402D01*
Y16079D01*
X111863Y13540D01*
X109324D01*
X114402Y18618D02*
Y28775D01*
X127098Y18618D02*
X122020D01*
X119480Y21158D01*
Y26236D01*
X122020Y28775D01*
X127098D01*
X129637Y26236D01*
Y23697D01*
X119480D01*
X134715Y18618D02*
Y28775D01*
X142333D01*
X144872Y26236D01*
Y18618D01*
X165186Y33853D02*
Y18618D01*
Y26236D01*
X175342D01*
Y33853D01*
Y18618D01*
X180421Y28775D02*
Y21158D01*
X182960Y18618D01*
X190577D01*
Y28775D01*
X195656D02*
Y21158D01*
X198195Y18618D01*
X205812D01*
Y16079D01*
X203273Y13540D01*
X200734D01*
X205812Y18618D02*
Y28775D01*
X226126Y33853D02*
Y18618D01*
X236283D01*
X243900D02*
X248978D01*
X251518Y21158D01*
Y26236D01*
X248978Y28775D01*
X243900D01*
X241361Y26236D01*
Y21158D01*
X243900Y18618D01*
X256596D02*
Y28775D01*
X264214D01*
X266753Y26236D01*
Y18618D01*
X276909Y13540D02*
X279449D01*
X281988Y16079D01*
Y28775D01*
X274370D01*
X271831Y26236D01*
Y21158D01*
X274370Y18618D01*
X281988D01*
X302301Y26236D02*
X312458D01*
X332771Y33853D02*
Y23697D01*
X337850Y18618D01*
X342928Y23697D01*
Y33853D01*
X348006Y28775D02*
Y21158D01*
X350546Y18618D01*
X358163D01*
Y28775D01*
X378476Y33853D02*
Y18618D01*
Y26236D01*
X388633D01*
Y33853D01*
Y18618D01*
X396251D02*
X401329D01*
X403868Y21158D01*
Y26236D01*
X401329Y28775D01*
X396251D01*
X393712Y26236D01*
Y21158D01*
X396251Y18618D01*
X411486Y28775D02*
X416564D01*
X419103Y26236D01*
Y18618D01*
X411486D01*
X408947Y21158D01*
X411486Y23697D01*
X419103D01*
X424182Y18618D02*
Y28775D01*
X431799D01*
X434338Y26236D01*
Y18618D01*
X444495Y13540D02*
X447034D01*
X449574Y16079D01*
Y28775D01*
X441956D01*
X439417Y26236D01*
Y21158D01*
X441956Y18618D01*
X449574D01*
X469887Y33853D02*
Y18618D01*
X480044D01*
X487661Y28775D02*
X492740D01*
X495279Y26236D01*
Y18618D01*
X487661D01*
X485122Y21158D01*
X487661Y23697D01*
X495279D01*
X500357Y18618D02*
Y28775D01*
X507975D01*
X510514Y26236D01*
Y18618D01*
X522643Y419009D02*
X520104Y421548D01*
X515025D01*
X512486Y419009D01*
Y416469D01*
X515025Y413930D01*
X520104D01*
X522643Y411391D01*
Y408852D01*
X520104Y406313D01*
X515025D01*
X512486Y408852D01*
X527721Y401234D02*
Y416469D01*
X535339D01*
X537878Y413930D01*
Y408852D01*
X535339Y406313D01*
X527721D01*
X550574D02*
X545495D01*
X542956Y408852D01*
Y413930D01*
X545495Y416469D01*
X550574D01*
X553113Y413930D01*
Y411391D01*
X542956D01*
X560731Y416469D02*
X565809D01*
X568348Y413930D01*
Y406313D01*
X560731D01*
X558191Y408852D01*
X560731Y411391D01*
X568348D01*
X573426Y406313D02*
Y421548D01*
Y411391D02*
X581044Y416469D01*
X573426Y411391D02*
X581044Y406313D01*
X596279D02*
X591201D01*
X588661Y408852D01*
Y413930D01*
X591201Y416469D01*
X596279D01*
X598818Y413930D01*
Y411391D01*
X588661D01*
X603896Y416469D02*
Y406313D01*
Y411391D01*
X606436Y413930D01*
X608975Y416469D01*
X611514D01*
X255912Y348001D02*
X266069D01*
X260990D01*
Y332766D01*
X271147Y342923D02*
Y332766D01*
Y337844D01*
X273686Y340383D01*
X276225Y342923D01*
X278765D01*
X286382Y332766D02*
X291460D01*
X288921D01*
Y342923D01*
X286382D01*
X299078Y332766D02*
Y342923D01*
X301617D01*
X304156Y340383D01*
Y332766D01*
Y340383D01*
X306696Y342923D01*
X309235Y340383D01*
Y332766D01*
X314313D02*
Y348001D01*
X321931D01*
X324470Y345462D01*
Y340383D01*
X321931Y337844D01*
X314313D01*
X337166Y348001D02*
X332087D01*
X329548Y345462D01*
Y335305D01*
X332087Y332766D01*
X337166D01*
X339705Y335305D01*
Y345462D01*
X337166Y348001D01*
X344783D02*
X354940D01*
X349862D01*
Y332766D01*
X187332Y473990D02*
Y489225D01*
X194949D01*
X197489Y486686D01*
Y481608D01*
X194949Y479068D01*
X187332D01*
X192410D02*
X197489Y473990D01*
X212724D02*
X202567D01*
X212724Y484147D01*
Y486686D01*
X210185Y489225D01*
X205106D01*
X202567Y486686D01*
X32135Y388641D02*
X27056D01*
X29595D01*
Y375945D01*
X27056Y373406D01*
X24517D01*
X21978Y375945D01*
X47370Y373406D02*
X37213D01*
X47370Y383563D01*
Y386102D01*
X44831Y388641D01*
X39752D01*
X37213Y386102D01*
X561471Y666263D02*
X556392D01*
X558932D01*
Y653567D01*
X556392Y651028D01*
X553853D01*
X551314Y653567D01*
X566549Y651028D02*
X571627D01*
X569088D01*
Y666263D01*
X566549Y663724D01*
X472063Y441982D02*
X469524Y444521D01*
X464445D01*
X461906Y441982D01*
Y431825D01*
X464445Y429286D01*
X469524D01*
X472063Y431825D01*
X487298Y429286D02*
X477141D01*
X487298Y439443D01*
Y441982D01*
X484759Y444521D01*
X479680D01*
X477141Y441982D01*
D14*
X342000Y472580D02*
X350464Y464116D01*
X342000D02*
X350464Y472580D01*
X342000Y468348D02*
X350464D01*
X346232Y464116D02*
Y472580D01*
X362000Y435997D02*
Y426000D01*
X368665D01*
X371997D02*
Y435997D01*
X375329Y432664D01*
X378661Y435997D01*
Y426000D01*
X381994Y434331D02*
X383660Y435997D01*
X386992D01*
X388658Y434331D01*
Y432664D01*
X386992Y430998D01*
X385326D01*
X386992D01*
X388658Y429332D01*
Y427666D01*
X386992Y426000D01*
X383660D01*
X381994Y427666D01*
X391990Y434331D02*
X393657Y435997D01*
X396989D01*
X398655Y434331D01*
Y432664D01*
X396989Y430998D01*
X398655Y429332D01*
Y427666D01*
X396989Y426000D01*
X393657D01*
X391990Y427666D01*
Y429332D01*
X393657Y430998D01*
X391990Y432664D01*
Y434331D01*
X393657Y430998D02*
X396989D01*
X408652Y435997D02*
X405319Y434331D01*
X401987Y430998D01*
Y427666D01*
X403653Y426000D01*
X406986D01*
X408652Y427666D01*
Y429332D01*
X406986Y430998D01*
X401987D01*
X404464Y269580D02*
X402348Y271696D01*
X398116D01*
X396000Y269580D01*
Y261116D01*
X398116Y259000D01*
X402348D01*
X404464Y261116D01*
X408696Y259000D02*
X412928D01*
X410812D01*
Y271696D01*
X408696Y269580D01*
X329464Y555580D02*
X327348Y557696D01*
X323116D01*
X321000Y555580D01*
Y547116D01*
X323116Y545000D01*
X327348D01*
X329464Y547116D01*
X333696Y555580D02*
X335812Y557696D01*
X340044D01*
X342160Y555580D01*
Y553464D01*
X340044Y551348D01*
X337928D01*
X340044D01*
X342160Y549232D01*
Y547116D01*
X340044Y545000D01*
X335812D01*
X333696Y547116D01*
X500350Y575265D02*
X487654D01*
Y581613D01*
X489770Y583729D01*
X494002D01*
X496118Y581613D01*
Y575265D01*
Y579497D02*
X500350Y583729D01*
Y587961D02*
Y592193D01*
Y590077D01*
X487654D01*
X489770Y587961D01*
X511420Y357464D02*
X509304Y355348D01*
Y351116D01*
X511420Y349000D01*
X519884D01*
X522000Y351116D01*
Y355348D01*
X519884Y357464D01*
X522000Y370160D02*
Y361696D01*
X513536Y370160D01*
X511420D01*
X509304Y368044D01*
Y363812D01*
X511420Y361696D01*
M02*
